<mxfile host="app.diagrams.net" modified="2022-09-23T16:02:35.528Z" agent="5.0 (Windows NT 10.0; Win64; x64) AppleWebKit/537.36 (KHTML, like Gecko) Chrome/105.0.0.0 Safari/537.36" etag="A77HworepG3FPsBuiGuh" version="20.3.6" type="github" pages="2">
  <diagram name="Page-1" id="55a83fd1-7818-8e21-69c5-c3457e3827bb">
    <mxGraphModel dx="1233" dy="700" grid="1" gridSize="10" guides="1" tooltips="1" connect="1" arrows="1" fold="1" page="1" pageScale="1" pageWidth="1100" pageHeight="850" background="none" math="0" shadow="0">
      <root>
        <mxCell id="0" />
        <mxCell id="1" parent="0" />
        <mxCell id="69ecfefc5c41e42c-18" style="edgeStyle=none;rounded=0;html=1;labelBackgroundColor=none;endArrow=none;strokeWidth=2;fontFamily=Verdana;fontSize=22" parent="1" source="69ecfefc5c41e42c-1" target="69ecfefc5c41e42c-3" edge="1">
          <mxGeometry relative="1" as="geometry" />
        </mxCell>
        <mxCell id="69ecfefc5c41e42c-1" value="" style="image;html=1;labelBackgroundColor=#ffffff;image=img/lib/clip_art/networking/Wireless_Router_128x128.png;rounded=1;shadow=0;comic=0;strokeWidth=2;fontSize=22" parent="1" vertex="1">
          <mxGeometry x="470" y="465" width="80" height="80" as="geometry" />
        </mxCell>
        <mxCell id="69ecfefc5c41e42c-2" value="Internet" style="image;html=1;labelBackgroundColor=#ffffff;image=img/lib/clip_art/networking/Cloud_128x128.png;rounded=1;shadow=0;comic=0;strokeWidth=2;fontSize=22;labelPosition=center;verticalLabelPosition=top;align=center;verticalAlign=bottom;" parent="1" vertex="1">
          <mxGeometry x="470" y="140" width="80" height="80" as="geometry" />
        </mxCell>
        <mxCell id="69ecfefc5c41e42c-19" style="edgeStyle=none;rounded=0;html=1;labelBackgroundColor=none;endArrow=none;strokeWidth=2;fontFamily=Verdana;fontSize=22" parent="1" source="69ecfefc5c41e42c-3" target="69ecfefc5c41e42c-2" edge="1">
          <mxGeometry relative="1" as="geometry" />
        </mxCell>
        <mxCell id="69ecfefc5c41e42c-3" value="Firewall" style="image;html=1;labelBackgroundColor=#ffffff;image=img/lib/clip_art/networking/Firewall_128x128.png;rounded=1;shadow=0;comic=0;strokeWidth=2;fontSize=22;labelPosition=right;verticalLabelPosition=middle;align=left;verticalAlign=middle;" parent="1" vertex="1">
          <mxGeometry x="470" y="290" width="80" height="80" as="geometry" />
        </mxCell>
        <mxCell id="69ecfefc5c41e42c-4" value="Tablet" style="image;html=1;labelBackgroundColor=#ffffff;image=img/lib/clip_art/computers/iPad_128x128.png;rounded=1;shadow=0;comic=0;strokeWidth=2;fontSize=22" parent="1" vertex="1">
          <mxGeometry x="500" y="700" width="80" height="80" as="geometry" />
        </mxCell>
        <mxCell id="69ecfefc5c41e42c-5" value="PC" style="image;html=1;labelBackgroundColor=#ffffff;image=img/lib/clip_art/computers/Monitor_Tower_128x128.png;rounded=1;shadow=0;comic=0;strokeWidth=2;fontSize=22" parent="1" vertex="1">
          <mxGeometry x="150" y="640" width="80" height="80" as="geometry" />
        </mxCell>
        <mxCell id="69ecfefc5c41e42c-6" value="Printer" style="image;html=1;labelBackgroundColor=#ffffff;image=img/lib/clip_art/computers/Printer_128x128.png;rounded=1;shadow=0;comic=0;strokeWidth=2;fontSize=22" parent="1" vertex="1">
          <mxGeometry x="150" y="440" width="80" height="80" as="geometry" />
        </mxCell>
        <mxCell id="69ecfefc5c41e42c-7" value="PC" style="image;html=1;labelBackgroundColor=#ffffff;image=img/lib/clip_art/computers/Workstation_128x128.png;rounded=1;shadow=0;comic=0;strokeWidth=2;fontSize=22" parent="1" vertex="1">
          <mxGeometry x="730" y="670" width="80" height="80" as="geometry" />
        </mxCell>
        <mxCell id="69ecfefc5c41e42c-8" value="Mobile" style="image;html=1;labelBackgroundColor=#ffffff;image=img/lib/clip_art/telecommunication/iPhone_128x128.png;rounded=1;shadow=0;comic=0;strokeWidth=2;fontSize=22" parent="1" vertex="1">
          <mxGeometry x="800" y="550" width="80" height="80" as="geometry" />
        </mxCell>
        <mxCell id="69ecfefc5c41e42c-9" value="Laptop" style="image;html=1;labelBackgroundColor=#ffffff;image=img/lib/clip_art/computers/Netbook_128x128.png;rounded=1;shadow=0;comic=0;strokeColor=#000000;strokeWidth=2;fillColor=#FFFFFF;fontSize=22;fontColor=#000000;" parent="1" vertex="1">
          <mxGeometry x="810" y="400" width="80" height="80" as="geometry" />
        </mxCell>
        <mxCell id="69ecfefc5c41e42c-10" value="Laptop" style="image;html=1;labelBackgroundColor=#ffffff;image=img/lib/clip_art/computers/Netbook_128x128.png;rounded=1;shadow=0;comic=0;strokeWidth=2;fontSize=22" parent="1" vertex="1">
          <mxGeometry x="320" y="710" width="80" height="80" as="geometry" />
        </mxCell>
        <mxCell id="69ecfefc5c41e42c-11" value="" style="html=1;fillColor=#CCCCCC;strokeColor=#6881B3;gradientColor=none;gradientDirection=north;strokeWidth=2;shape=mxgraph.networks.comm_link_edge;html=1;labelBackgroundColor=none;endArrow=none;fontFamily=Verdana;fontSize=22;fontColor=#000000;" parent="1" source="69ecfefc5c41e42c-6" target="69ecfefc5c41e42c-1" edge="1">
          <mxGeometry width="100" height="100" relative="1" as="geometry">
            <mxPoint x="300" y="390" as="sourcePoint" />
            <mxPoint x="400" y="290" as="targetPoint" />
          </mxGeometry>
        </mxCell>
        <mxCell id="69ecfefc5c41e42c-12" value="" style="html=1;fillColor=#CCCCCC;strokeColor=#6881B3;gradientColor=none;gradientDirection=north;strokeWidth=2;shape=mxgraph.networks.comm_link_edge;html=1;labelBackgroundColor=none;endArrow=none;fontFamily=Verdana;fontSize=22;fontColor=#000000;fontStyle=1" parent="1" source="69ecfefc5c41e42c-5" target="69ecfefc5c41e42c-1" edge="1">
          <mxGeometry width="100" height="100" relative="1" as="geometry">
            <mxPoint x="320" y="481.9565217391305" as="sourcePoint" />
            <mxPoint x="470" y="508.0434782608695" as="targetPoint" />
          </mxGeometry>
        </mxCell>
        <mxCell id="69ecfefc5c41e42c-13" value="" style="html=1;fillColor=#CCCCCC;strokeColor=#6881B3;gradientColor=none;gradientDirection=north;strokeWidth=2;shape=mxgraph.networks.comm_link_edge;html=1;labelBackgroundColor=none;endArrow=none;fontFamily=Verdana;fontSize=22;fontColor=#000000;" parent="1" source="69ecfefc5c41e42c-10" target="69ecfefc5c41e42c-1" edge="1">
          <mxGeometry width="100" height="100" relative="1" as="geometry">
            <mxPoint x="330" y="491.9565217391305" as="sourcePoint" />
            <mxPoint x="480" y="518.0434782608695" as="targetPoint" />
          </mxGeometry>
        </mxCell>
        <mxCell id="69ecfefc5c41e42c-14" value="" style="html=1;fillColor=#CCCCCC;strokeColor=#6881B3;gradientColor=none;gradientDirection=north;strokeWidth=2;shape=mxgraph.networks.comm_link_edge;html=1;labelBackgroundColor=none;endArrow=none;fontFamily=Verdana;fontSize=22;fontColor=#000000;" parent="1" source="69ecfefc5c41e42c-4" target="69ecfefc5c41e42c-1" edge="1">
          <mxGeometry width="100" height="100" relative="1" as="geometry">
            <mxPoint x="340" y="501.9565217391305" as="sourcePoint" />
            <mxPoint x="490" y="528.0434782608695" as="targetPoint" />
          </mxGeometry>
        </mxCell>
        <mxCell id="69ecfefc5c41e42c-15" value="" style="html=1;fillColor=#CCCCCC;strokeColor=#6881B3;gradientColor=none;gradientDirection=north;strokeWidth=2;shape=mxgraph.networks.comm_link_edge;html=1;labelBackgroundColor=none;endArrow=none;fontFamily=Verdana;fontSize=22;fontColor=#000000;" parent="1" source="69ecfefc5c41e42c-7" target="69ecfefc5c41e42c-1" edge="1">
          <mxGeometry width="100" height="100" relative="1" as="geometry">
            <mxPoint x="350" y="511.9565217391305" as="sourcePoint" />
            <mxPoint x="500" y="538.0434782608695" as="targetPoint" />
          </mxGeometry>
        </mxCell>
        <mxCell id="69ecfefc5c41e42c-16" value="" style="html=1;fillColor=#CCCCCC;strokeColor=#6881B3;gradientColor=none;gradientDirection=north;strokeWidth=2;shape=mxgraph.networks.comm_link_edge;html=1;labelBackgroundColor=none;endArrow=none;fontFamily=Verdana;fontSize=22;fontColor=#000000;" parent="1" source="69ecfefc5c41e42c-8" target="69ecfefc5c41e42c-1" edge="1">
          <mxGeometry width="100" height="100" relative="1" as="geometry">
            <mxPoint x="360" y="521.9565217391305" as="sourcePoint" />
            <mxPoint x="510" y="548.0434782608695" as="targetPoint" />
          </mxGeometry>
        </mxCell>
        <mxCell id="69ecfefc5c41e42c-17" value="" style="html=1;fillColor=#CCCCCC;strokeColor=#6881B3;gradientColor=none;gradientDirection=north;strokeWidth=2;shape=mxgraph.networks.comm_link_edge;html=1;labelBackgroundColor=none;endArrow=none;fontFamily=Verdana;fontSize=22;fontColor=#000000;" parent="1" source="69ecfefc5c41e42c-9" target="69ecfefc5c41e42c-1" edge="1">
          <mxGeometry width="100" height="100" relative="1" as="geometry">
            <mxPoint x="370" y="531.9565217391305" as="sourcePoint" />
            <mxPoint x="520" y="558.0434782608695" as="targetPoint" />
          </mxGeometry>
        </mxCell>
      </root>
    </mxGraphModel>
  </diagram>
  <diagram id="LgvZn1snTc1jdZyymSEZ" name="第 2 页">
    <mxGraphModel dx="1761" dy="1000" grid="1" gridSize="10" guides="1" tooltips="1" connect="1" arrows="1" fold="1" page="1" pageScale="1" pageWidth="827" pageHeight="1169" math="0" shadow="0">
      <root>
        <mxCell id="0" />
        <mxCell id="1" parent="0" />
        <mxCell id="7u4wmqIj3bdnAmBnxMjf-31" value="Home Network: 192.168.X.0/24" style="rounded=0;whiteSpace=wrap;html=1;align=left;verticalAlign=top;" vertex="1" parent="1">
          <mxGeometry x="530" y="230" width="600" height="730" as="geometry" />
        </mxCell>
        <mxCell id="7u4wmqIj3bdnAmBnxMjf-42" value="OpenVPN Network: 10.X.Y.0/24" style="rounded=0;whiteSpace=wrap;html=1;labelBackgroundColor=none;fillColor=#fff2cc;strokeColor=#d6b656;align=left;verticalAlign=top;" vertex="1" parent="1">
          <mxGeometry x="50" y="260" width="1020" height="150" as="geometry" />
        </mxCell>
        <mxCell id="7u4wmqIj3bdnAmBnxMjf-40" value="" style="ellipse;shape=cloud;whiteSpace=wrap;html=1;" vertex="1" parent="1">
          <mxGeometry x="640" y="449.5" width="320" height="330.5" as="geometry" />
        </mxCell>
        <mxCell id="7u4wmqIj3bdnAmBnxMjf-41" value="EXSi&lt;br&gt;192.168.X.3/24&lt;br&gt;&lt;br&gt;StaticRoute&lt;br&gt;10.X.Y.0/24 -&amp;gt; 192.168.X.2" style="rounded=0;whiteSpace=wrap;html=1;fillColor=#dae8fc;strokeColor=#6c8ebf;align=right;verticalAlign=top;" vertex="1" parent="1">
          <mxGeometry x="560" y="275" width="740" height="80" as="geometry" />
        </mxCell>
        <mxCell id="7u4wmqIj3bdnAmBnxMjf-3" value="" style="html=1;outlineConnect=0;fillColor=#CCCCCC;strokeColor=#6881B3;gradientColor=none;gradientDirection=north;strokeWidth=2;shape=mxgraph.networks.cloud;fontColor=#ffffff;" vertex="1" parent="1">
          <mxGeometry x="230" y="275" width="140" height="90" as="geometry" />
        </mxCell>
        <mxCell id="7u4wmqIj3bdnAmBnxMjf-4" value="" style="html=1;outlineConnect=0;fillColor=#CCCCCC;strokeColor=#6881B3;gradientColor=none;gradientDirection=north;strokeWidth=2;shape=mxgraph.networks.comm_link_edge;html=1;rounded=0;entryX=0;entryY=0.5;entryDx=0;entryDy=0;exitX=0.91;exitY=0.5;exitDx=0;exitDy=0;exitPerimeter=0;startArrow=none;" edge="1" parent="1" source="7u4wmqIj3bdnAmBnxMjf-1" target="7u4wmqIj3bdnAmBnxMjf-6">
          <mxGeometry width="100" height="100" relative="1" as="geometry">
            <mxPoint x="170" y="350" as="sourcePoint" />
            <mxPoint x="310" y="330" as="targetPoint" />
            <Array as="points">
              <mxPoint x="190" y="310" />
            </Array>
          </mxGeometry>
        </mxCell>
        <mxCell id="7u4wmqIj3bdnAmBnxMjf-5" value="PPPoE" style="edgeLabel;html=1;align=center;verticalAlign=middle;resizable=0;points=[];labelBackgroundColor=none;" vertex="1" connectable="0" parent="7u4wmqIj3bdnAmBnxMjf-4">
          <mxGeometry x="0.1037" y="-23" relative="1" as="geometry">
            <mxPoint x="255" y="-36" as="offset" />
          </mxGeometry>
        </mxCell>
        <mxCell id="7u4wmqIj3bdnAmBnxMjf-6" value="&lt;font style=&quot;font-size: 12px;&quot;&gt;主路由(iKua)&lt;br style=&quot;font-size: 12px;&quot;&gt;192.168.X.1/24&lt;br style=&quot;font-size: 12px;&quot;&gt;&lt;br style=&quot;font-size: 12px;&quot;&gt;Static Route:&lt;br style=&quot;font-size: 12px;&quot;&gt;10.X.Y.0/24 -&amp;gt; 192.168.X.2&lt;br style=&quot;font-size: 12px;&quot;&gt;&lt;br style=&quot;font-size: 12px;&quot;&gt;DHCP&lt;br style=&quot;font-size: 12px;&quot;&gt;option gw 192.168.X.2&lt;br style=&quot;font-size: 12px;&quot;&gt;&lt;br style=&quot;font-size: 12px;&quot;&gt;Forwad Port:&lt;br style=&quot;font-size: 12px;&quot;&gt;192.168.X.2:xyz&lt;br style=&quot;font-size: 12px;&quot;&gt;&lt;br style=&quot;font-size: 12px;&quot;&gt;DDNS&lt;/font&gt;" style="image;html=1;image=img/lib/clip_art/networking/Router_128x128.png;labelBackgroundColor=none;fontSize=12;align=left;" vertex="1" parent="1">
          <mxGeometry x="590" y="280" width="80" height="80" as="geometry" />
        </mxCell>
        <mxCell id="7u4wmqIj3bdnAmBnxMjf-10" value="" style="image;html=1;image=img/lib/clip_art/telecommunication/Signal_tower_on_128x128.png" vertex="1" parent="1">
          <mxGeometry x="760" y="500" width="80" height="80" as="geometry" />
        </mxCell>
        <mxCell id="7u4wmqIj3bdnAmBnxMjf-11" value="" style="image;html=1;image=img/lib/clip_art/telecommunication/Signal_tower_on_128x128.png" vertex="1" parent="1">
          <mxGeometry x="700" y="630" width="80" height="80" as="geometry" />
        </mxCell>
        <mxCell id="7u4wmqIj3bdnAmBnxMjf-12" value="" style="image;html=1;image=img/lib/clip_art/telecommunication/Signal_tower_on_128x128.png" vertex="1" parent="1">
          <mxGeometry x="840" y="630" width="80" height="80" as="geometry" />
        </mxCell>
        <mxCell id="7u4wmqIj3bdnAmBnxMjf-18" value="无线Mesh" style="text;html=1;align=center;verticalAlign=middle;resizable=0;points=[];autosize=1;strokeColor=none;fillColor=none;" vertex="1" parent="1">
          <mxGeometry x="760" y="610" width="80" height="30" as="geometry" />
        </mxCell>
        <mxCell id="7u4wmqIj3bdnAmBnxMjf-19" value="旁路由(OpenWrt By eSir)&lt;br&gt;192.168.X.2/24&lt;br&gt;10.X.Y.x0/24&lt;br&gt;&lt;br&gt;OpenVPN:&lt;br&gt;port: xyz&lt;br&gt;10.X.Y.0/24&lt;br&gt;route 192.168.X.0/24&lt;br&gt;redir gateway&lt;br&gt;dns 192.168.X.1&lt;br&gt;&lt;br&gt;OpenClash" style="image;html=1;image=img/lib/clip_art/networking/Router_128x128.png;labelBackgroundColor=none;align=left;" vertex="1" parent="1">
          <mxGeometry x="930" y="280" width="80" height="80" as="geometry" />
        </mxCell>
        <mxCell id="7u4wmqIj3bdnAmBnxMjf-20" value="VM NetWork" style="image;html=1;image=img/lib/clip_art/networking/Switch_128x128.png;labelBackgroundColor=none;" vertex="1" parent="1">
          <mxGeometry x="760" y="280" width="80" height="80" as="geometry" />
        </mxCell>
        <mxCell id="7u4wmqIj3bdnAmBnxMjf-21" value="" style="html=1;outlineConnect=0;fillColor=#CCCCCC;strokeColor=#6881B3;gradientColor=none;gradientDirection=north;strokeWidth=2;shape=mxgraph.networks.comm_link_edge;html=1;rounded=0;entryX=0.5;entryY=1;entryDx=0;entryDy=0;exitX=0.5;exitY=0;exitDx=0;exitDy=0;" edge="1" parent="1" source="7u4wmqIj3bdnAmBnxMjf-10" target="7u4wmqIj3bdnAmBnxMjf-20">
          <mxGeometry width="100" height="100" relative="1" as="geometry">
            <mxPoint x="650" y="570" as="sourcePoint" />
            <mxPoint x="750" y="470" as="targetPoint" />
          </mxGeometry>
        </mxCell>
        <mxCell id="7u4wmqIj3bdnAmBnxMjf-22" value="" style="html=1;outlineConnect=0;fillColor=#CCCCCC;strokeColor=#6881B3;gradientColor=none;gradientDirection=north;strokeWidth=2;shape=mxgraph.networks.comm_link_edge;html=1;rounded=0;exitX=1;exitY=0.5;exitDx=0;exitDy=0;entryX=0;entryY=0.5;entryDx=0;entryDy=0;" edge="1" parent="1" source="7u4wmqIj3bdnAmBnxMjf-6" target="7u4wmqIj3bdnAmBnxMjf-20">
          <mxGeometry width="100" height="100" relative="1" as="geometry">
            <mxPoint x="660" y="260" as="sourcePoint" />
            <mxPoint x="760" y="160" as="targetPoint" />
          </mxGeometry>
        </mxCell>
        <mxCell id="7u4wmqIj3bdnAmBnxMjf-23" value="" style="html=1;outlineConnect=0;fillColor=#CCCCCC;strokeColor=#6881B3;gradientColor=none;gradientDirection=north;strokeWidth=2;shape=mxgraph.networks.comm_link_edge;html=1;rounded=0;exitX=1;exitY=0.5;exitDx=0;exitDy=0;entryX=0;entryY=0.5;entryDx=0;entryDy=0;" edge="1" parent="1" source="7u4wmqIj3bdnAmBnxMjf-20" target="7u4wmqIj3bdnAmBnxMjf-19">
          <mxGeometry width="100" height="100" relative="1" as="geometry">
            <mxPoint x="1090" y="230" as="sourcePoint" />
            <mxPoint x="1190" y="130" as="targetPoint" />
          </mxGeometry>
        </mxCell>
        <mxCell id="7u4wmqIj3bdnAmBnxMjf-1" value="光猫" style="image;html=1;image=img/lib/clip_art/networking/Modem_128x128.png;labelBackgroundColor=none;" vertex="1" parent="1">
          <mxGeometry x="420" y="280" width="80" height="80" as="geometry" />
        </mxCell>
        <mxCell id="7u4wmqIj3bdnAmBnxMjf-24" value="" style="html=1;outlineConnect=0;fillColor=#CCCCCC;strokeColor=#6881B3;gradientColor=none;gradientDirection=north;strokeWidth=2;shape=mxgraph.networks.comm_link_edge;html=1;rounded=0;entryX=0;entryY=0.5;entryDx=0;entryDy=0;exitX=0.91;exitY=0.5;exitDx=0;exitDy=0;exitPerimeter=0;endArrow=none;" edge="1" parent="1" source="7u4wmqIj3bdnAmBnxMjf-3" target="7u4wmqIj3bdnAmBnxMjf-1">
          <mxGeometry width="100" height="100" relative="1" as="geometry">
            <mxPoint x="257.39999999999986" y="345" as="sourcePoint" />
            <mxPoint x="590" y="340" as="targetPoint" />
            <Array as="points" />
          </mxGeometry>
        </mxCell>
        <mxCell id="7u4wmqIj3bdnAmBnxMjf-32" value="Dynamic: 192.168.X.x3/24" style="image;html=1;image=img/lib/clip_art/computers/MacBook_128x128.png" vertex="1" parent="1">
          <mxGeometry x="570" y="780" width="80" height="80" as="geometry" />
        </mxCell>
        <mxCell id="7u4wmqIj3bdnAmBnxMjf-33" value="Dynamic: 192.168.X.x2/24" style="image;html=1;image=img/lib/clip_art/computers/iPad_128x128.png" vertex="1" parent="1">
          <mxGeometry x="790" y="830" width="80" height="80" as="geometry" />
        </mxCell>
        <mxCell id="7u4wmqIj3bdnAmBnxMjf-34" value="Dynamic: 192.168.X.x1/24" style="image;html=1;image=img/lib/clip_art/computers/Monitor_Tower_128x128.png" vertex="1" parent="1">
          <mxGeometry x="990" y="800" width="80" height="80" as="geometry" />
        </mxCell>
        <mxCell id="7u4wmqIj3bdnAmBnxMjf-35" value="Dynamic: 192.168.X.x0/24" style="shape=image;html=1;verticalAlign=top;verticalLabelPosition=bottom;labelBackgroundColor=#ffffff;imageAspect=0;aspect=fixed;image=https://cdn0.iconfinder.com/data/icons/devices-42/512/android_phone-128.png" vertex="1" parent="1">
          <mxGeometry x="1010" y="580" width="78" height="78" as="geometry" />
        </mxCell>
        <mxCell id="7u4wmqIj3bdnAmBnxMjf-36" value="" style="html=1;outlineConnect=0;fillColor=#CCCCCC;strokeColor=#6881B3;gradientColor=none;gradientDirection=north;strokeWidth=2;shape=mxgraph.networks.comm_link_edge;html=1;rounded=0;exitX=0.75;exitY=0;exitDx=0;exitDy=0;" edge="1" parent="1" source="7u4wmqIj3bdnAmBnxMjf-32" target="7u4wmqIj3bdnAmBnxMjf-11">
          <mxGeometry width="100" height="100" relative="1" as="geometry">
            <mxPoint x="660" y="980" as="sourcePoint" />
            <mxPoint x="760" y="880" as="targetPoint" />
          </mxGeometry>
        </mxCell>
        <mxCell id="7u4wmqIj3bdnAmBnxMjf-37" value="" style="html=1;outlineConnect=0;fillColor=#CCCCCC;strokeColor=#6881B3;gradientColor=none;gradientDirection=north;strokeWidth=2;shape=mxgraph.networks.comm_link_edge;html=1;rounded=0;entryX=1;entryY=1;entryDx=0;entryDy=0;" edge="1" parent="1" target="7u4wmqIj3bdnAmBnxMjf-11">
          <mxGeometry width="100" height="100" relative="1" as="geometry">
            <mxPoint x="790" y="830" as="sourcePoint" />
            <mxPoint x="840" y="780" as="targetPoint" />
          </mxGeometry>
        </mxCell>
        <mxCell id="7u4wmqIj3bdnAmBnxMjf-38" value="" style="html=1;outlineConnect=0;fillColor=#CCCCCC;strokeColor=#6881B3;gradientColor=none;gradientDirection=north;strokeWidth=2;shape=mxgraph.networks.comm_link_edge;html=1;rounded=0;entryX=0.75;entryY=1;entryDx=0;entryDy=0;exitX=0;exitY=0;exitDx=0;exitDy=0;" edge="1" parent="1" source="7u4wmqIj3bdnAmBnxMjf-34" target="7u4wmqIj3bdnAmBnxMjf-12">
          <mxGeometry width="100" height="100" relative="1" as="geometry">
            <mxPoint x="890" y="910" as="sourcePoint" />
            <mxPoint x="990" y="810" as="targetPoint" />
          </mxGeometry>
        </mxCell>
        <mxCell id="7u4wmqIj3bdnAmBnxMjf-39" value="" style="html=1;outlineConnect=0;fillColor=#CCCCCC;strokeColor=#6881B3;gradientColor=none;gradientDirection=north;strokeWidth=2;shape=mxgraph.networks.comm_link_edge;html=1;rounded=0;entryX=1;entryY=0;entryDx=0;entryDy=0;exitX=0;exitY=0.75;exitDx=0;exitDy=0;" edge="1" parent="1" source="7u4wmqIj3bdnAmBnxMjf-35" target="7u4wmqIj3bdnAmBnxMjf-12">
          <mxGeometry width="100" height="100" relative="1" as="geometry">
            <mxPoint x="1010" y="820" as="sourcePoint" />
            <mxPoint x="1110" y="720" as="targetPoint" />
          </mxGeometry>
        </mxCell>
        <mxCell id="7u4wmqIj3bdnAmBnxMjf-44" value="Dynamic: 10.X.Y.x1/24" style="shape=image;html=1;verticalAlign=top;verticalLabelPosition=bottom;labelBackgroundColor=none;imageAspect=0;aspect=fixed;image=https://cdn0.iconfinder.com/data/icons/devices-42/512/android_phone-128.png" vertex="1" parent="1">
          <mxGeometry x="90" y="287" width="78" height="78" as="geometry" />
        </mxCell>
        <mxCell id="7u4wmqIj3bdnAmBnxMjf-45" value="" style="html=1;outlineConnect=0;fillColor=#CCCCCC;strokeColor=#6881B3;gradientColor=none;gradientDirection=north;strokeWidth=2;shape=mxgraph.networks.comm_link_edge;html=1;rounded=0;fontFamily=Helvetica;fontSize=12;fontColor=default;exitX=1;exitY=0.5;exitDx=0;exitDy=0;entryX=0.06;entryY=0.5;entryDx=0;entryDy=0;entryPerimeter=0;" edge="1" parent="1" source="7u4wmqIj3bdnAmBnxMjf-44" target="7u4wmqIj3bdnAmBnxMjf-3">
          <mxGeometry width="100" height="100" relative="1" as="geometry">
            <mxPoint x="100" y="570" as="sourcePoint" />
            <mxPoint x="200" y="470" as="targetPoint" />
          </mxGeometry>
        </mxCell>
      </root>
    </mxGraphModel>
  </diagram>
</mxfile>
